PathFileType	4	(X/Y/Z)	52_2_21_p1_0-156_filt_butterworth.trc
DataRate	CameraRate	NumFrames	NumMarkers	Units	OrigDataRate	OrigDataStartFrame	OrigNumFrames
41.0	41.0	7	27	m	41.0	58	156
Frame#	Time	RHip			RKnee			RAnkle			RBigToe			RSmallToe			RHeel			LHip			LKnee			LAnkle			LBigToe			LSmallToe			LHeel			Neck			Head			Nose			RShoulder			RElbow			RWrist			RThumb			RIndex			RPinky			LShoulder			LElbow			LWrist			LThumb			LIndex			LPinky			
		X1	Y1	Z1	X2	Y2	Z2	X3	Y3	Z3	X4	Y4	Z4	X5	Y5	Z5	X6	Y6	Z6	X7	Y7	Z7	X8	Y8	Z8	X9	Y9	Z9	X10	Y10	Z10	X11	Y11	Z11	X12	Y12	Z12	X13	Y13	Z13	X14	Y14	Z14	X15	Y15	Z15	X16	Y16	Z16	X17	Y17	Z17	X18	Y18	Z18	X19	Y19	Z19	X20	Y20	Z20	X21	Y21	Z21	X22	Y22	Z22	X23	Y23	Z23	X24	Y24	Z24	X25	Y25	Z25	X26	Y26	Z26	X27	Y27	Z27	
58	1.4146341463414631	-0.0007117477504539615	0.7317450763614438	0.7165209862188625	0.024937417596592834	0.2814247138983014	0.7572483039069693	0.01523812081419819	-0.12356698530879662	0.7997525246735692	-0.005802744639526868	-0.10039152460808234	0.5739088349813414	0.05516378198240131	-0.1319627615362488	0.6259247160020409	-0.002631555773421489	-0.19443612319031087	0.8739019020571821	-0.19678379222313888	0.7111626543826616	0.7312474930975101	-0.193766145242489	0.27811727691913923	0.7634933447677626	-0.16838680574610615	-0.11609716592439465	0.7805375836504928	-0.14997901063193023	-0.11229767786426262	0.5994718796040396	-0.2084143479847327	-0.12699426135836886	0.6425304561976407	-0.14953203094746728	-0.18289390222391422	0.824808699367587	-0.09938639865334806	1.2335006100505281	0.7136573400919298	-0.11725185850198494	1.4951664121079513	0.6722451813733048	-0.11616616700626575	1.3453711935547288	0.6188744289730823	0.04016571652628631	1.1674220441959524	0.7215911194683144	0.048953188776735324	0.9654207179072358	0.589791087657156	-0.06039874802373796	1.1582492342652508	0.5667947526281341	-0.09927305244679782	1.2287963755395876	0.6368538894968155	-0.11248683592552436	1.2424504889455599	0.5860781536796879	-0.10743562015497973	1.212951759451293	0.5350506363134517	-0.25294677955869665	1.1564379683654378	0.755575742776817	-0.29105222261297164	0.8961082143114804	0.7180133114334131	-0.25857399941617754	0.6610673389256457	0.6587594662807914	-0.22765503576508683	0.5727295653841638	0.6296436539300752	-0.2370606678551763	0.5337678873092842	0.6290828816314327	-0.27792003476936433	0.5449522027233367	0.6482678492612969	
59	1.4390243902439024	-0.0005793419262466182	0.731838320215245	0.715880535478244	0.0253320183335511	0.28130716717403315	0.7574315570453181	0.01535619835940103	-0.12332077798527175	0.7993767430309944	-0.005105672577666219	-0.10181732967729293	0.5762457281629327	0.05558463735433371	-0.1309405080969149	0.6244959094053417	-0.0027117933513647018	-0.19498455873844617	0.8738963641960633	-0.19632545101642032	0.7112798267006423	0.7308295638702957	-0.19333850857507057	0.27781590255903044	0.7636691330086695	-0.16814537080604205	-0.1159786084539936	0.7810572065432687	-0.14980707316739522	-0.11227048586469479	0.5995622969650466	-0.20815153594246846	-0.12634539266756672	0.6427050155053614	-0.14940036104000615	-0.18311560211571257	0.8255684253911573	-0.09940261712260631	1.233519757134674	0.7137027241798852	-0.1168896453490818	1.4945704894034972	0.6710561648420057	-0.11602197822529858	1.3453264477464277	0.6188399097973625	0.04101369098762758	1.1675640859989513	0.7219318069862384	0.049055522154992426	0.9655200061399659	0.5895405093289542	-0.0597095672169905	1.1586524992559626	0.5635488629267174	-0.10015198033508996	1.2285375632006246	0.6360871158774595	-0.11328090345894845	1.2426051796555626	0.5851327926702681	-0.10718054754077738	1.214210077666802	0.5292702129281436	-0.2537125555406041	1.1563923040151778	0.7552233367733932	-0.29089947243040126	0.8950128974901156	0.7209511354478315	-0.2585397750644606	0.6611038643873551	0.6586762724615703	-0.22767573470106464	0.572132425481845	0.6297394849249024	-0.237380720725821	0.5338799190126992	0.6285116212923757	-0.2777067380659408	0.5446567498100527	0.6484273846262032	
60	1.4634146341463414	-0.00041068155672976947	0.7318923733069942	0.7155112470828133	0.025502291858989737	0.2809037393874786	0.7580018926164803	0.01552791484071957	-0.12294852180853844	0.7988042303781488	-0.004522342856471367	-0.10299104065431376	0.5781975874868315	0.05632626656955849	-0.12943490437002625	0.6221072352312819	-0.0028238560821156125	-0.19548301107117774	0.8739030217612455	-0.1959362626908598	0.7114333772908596	0.7305659638618536	-0.19291503934487736	0.27747287572951046	0.7638426957152262	-0.16804348777077543	-0.1158919661106925	0.781252587849298	-0.1494935281168214	-0.11335145550658662	0.601368444414874	-0.20801545146505618	-0.12536120210712598	0.6428308973111125	-0.1492884759121879	-0.1833207242576029	0.8262044939632197	-0.09942159886056928	1.2335403815178547	0.7137359297053641	-0.11642421473724135	1.4939269830205704	0.6707674653934703	-0.11566691525135653	1.34538986091661	0.6177464768260316	0.041913255251664894	1.167653208141619	0.7223345764367051	0.049133686368883045	0.9656331124165096	0.5893031558421377	-0.05902265148108593	1.1590573925992531	0.5607835223427706	-0.10221445709110355	1.2289929485688817	0.6328117450414563	-0.11468987418346913	1.2427386802791536	0.5828528103962263	-0.10646206956117918	1.2160160019589301	0.5219515361587257	-0.2544620444426448	1.1563516691352047	0.7548810042290719	-0.29061756175968145	0.8939292205877796	0.72419597413462	-0.2585209002524125	0.6611340981156959	0.658622330598005	-0.22780517326365857	0.571331177671013	0.6309391701244313	-0.23791781168588028	0.5338521704450957	0.6282282377027655	-0.2777431118837433	0.5442339597630843	0.648605125745791	
61	1.4878048780487805	-0.00017148603887492953	0.73179975995354	0.715411283264201	0.02544239383990239	0.28050386499483115	0.7586632465224858	0.015750644276183334	-0.12245148626380217	0.7980401239128434	-0.004182498766855768	-0.10366451062308527	0.5793258487206381	0.05722182415951606	-0.12767877368873062	0.6192120795552344	-0.0029322974307407694	-0.19598761934977152	0.8739015789154351	-0.195661017801531	0.711662930494609	0.7305738831058556	-0.19250914365116437	0.27711043494036747	0.7639659202535467	-0.16799211370703437	-0.1157143800339882	0.7811016602689761	-0.1490907061329826	-0.11489365606796227	0.6038984921063313	-0.20792799756317062	-0.12425930194090418	0.642950290003758	-0.1492069764919933	-0.1834777261042098	0.8266869400119389	-0.09944133865074747	1.2335544501237146	0.7137504441088125	-0.11596593909956593	1.4933032251673806	0.6710065385823483	-0.11509615523721317	1.3455896083135888	0.6157844600187894	0.04271296456113055	1.1676710042067777	0.7227172166099419	0.049101957927388085	0.9656385070708811	0.5895175187248712	-0.05843415807390684	1.159449934095376	0.5582978450301306	-0.1055562362500384	1.22991283080038	0.6276179329205668	-0.1161901300813189	1.2427940871408762	0.5803822774426907	-0.10523336026338923	1.2180175680016225	0.5148963362130304	-0.25509012303138956	1.1563261256951731	0.7545961423686842	-0.29033095107569024	0.8931499412680595	0.7271825051371537	-0.25851021016641057	0.661162466832917	0.6585766798092226	-0.22788026279705706	0.5703717599226729	0.6332501933505006	-0.23817998503645088	0.5331785826603742	0.6294270492588887	-0.27744301412380673	0.5439157045501568	0.6488445283743036	
62	1.5121951219512195	0.00014312665125082447	0.7314670219286559	0.715618017924071	0.025211274622624374	0.2803125065278633	0.759168208463648	0.016020800549578856	-0.12183706714409823	0.7970965502822261	-0.004149066580065219	-0.10371222179158635	0.5794220644776104	0.05805615419751163	-0.125503213608299	0.6161412155403114	-0.003025661576131017	-0.1965593603458472	0.8738798974901426	-0.19558126305822546	0.7118068310534577	0.7310492803464803	-0.19212360158925373	0.2766957567828988	0.7640383143421521	-0.16795619974925236	-0.11539125235566894	0.780577098779106	-0.14863033132231465	-0.11641884173352718	0.606302865659565	-0.207801986976434	-0.12336618231620566	0.6430205093976504	-0.1491538541920986	-0.1835640545572097	0.8269844973789355	-0.0994574338773008	1.2335562190483491	0.7137420668539631	-0.11569200704286525	1.492967992386835	0.6711749643814077	-0.11438955253068267	1.3459280002019156	0.6133764631269583	0.043465005341237095	1.1675992621734028	0.7230451218211597	0.04897573613293649	0.965549393635518	0.590037864041027	-0.05808133186405623	1.1597118897365202	0.5560766832362896	-0.10933213992474655	1.2305873000202705	0.6232544637381467	-0.1172423802100093	1.242845411364448	0.5785077699448538	-0.1037896362069568	1.2198396226594321	0.5095390425638215	-0.2554649635652002	1.1563314417366874	0.7544291516713055	-0.2901980617757172	0.892682482781184	0.7298799694142717	-0.2585115875913758	0.6611845681387881	0.6585430404695665	-0.22788345751217023	0.5691389779921202	0.6365528748642711	-0.23814075775093851	0.531806011077495	0.6319637432540599	-0.2768119280422482	0.543855179770339	0.6490730846467527	
63	1.5365853658536586	0.0005855054772025692	0.7309862427961997	0.7162340153170286	0.024913680392628396	0.28032797995471515	0.7595608933436017	0.016342140502894717	-0.12109858936143716	0.7959628741355458	-0.004286725487527038	-0.10340982453582759	0.5789522796006905	0.058653483626560345	-0.12275124060949519	0.6132036882772367	-0.0031099083149952805	-0.1971114268805041	0.8738516144098992	-0.19561517655638488	0.7117522918633228	0.7318003779499331	-0.19176854919459493	0.27623954755464125	0.7640926769172232	-0.16788252063903972	-0.11487924701767366	0.7795152150303608	-0.1481136555205289	-0.1179358503963423	0.6084964964701379	-0.20758800157324075	-0.12299313195863831	0.6430190710788214	-0.14912796144907137	-0.18356420346909424	0.8270415918955629	-0.09946665125508902	1.2335498737530182	0.71371415435035	-0.11569160284544533	1.493025748011398	0.6711277802857778	-0.11356543719514095	1.3463712546140651	0.6107704799140912	0.04412958066555228	1.1674944395305265	0.723297075524802	0.048933311313768435	0.9654553155276243	0.5899909425459586	-0.05798116827472155	1.159653276184802	0.5546881591527801	-0.11203336609679798	1.2307346964524828	0.6214079198770065	-0.11774653975887714	1.2429227143438322	0.5775622840520247	-0.10248356318073412	1.221300279760151	0.5059247392652084	-0.2555143131623237	1.1563577222046137	0.7544121024948567	-0.2903048839665209	0.8922520077562104	0.7320697229059898	-0.2585119716616434	0.6611896336899556	0.6585474543267174	-0.22782502659701806	0.5677293344398502	0.6403145969169621	-0.23796731756381995	0.5301033455997405	0.634659893785555	-0.27642772995594156	0.543885500930592	0.6492349819630019	
64	1.5609756097560976	0.0011490550016471923	0.7305977603472924	0.7171674378839674	0.024724023923220817	0.2803936279138144	0.7599313191609433	0.016731688246198088	-0.12019830455086872	0.7945799807063325	-0.004375488616532288	-0.10319791200869283	0.5786671273074314	0.05906869588048879	-0.11995228128667	0.6105981145984991	-0.0031801530865301526	-0.19753338218307992	0.8738320482919816	-0.1955487826346806	0.7116929452861823	0.7322961524321917	-0.19146244301364818	0.2757870313412524	0.7641418322385034	-0.16769845132674677	-0.1142987618990095	0.7779815438570021	-0.14752583397962796	-0.11971088407070936	0.6111939479814303	-0.207336062834064	-0.12325758000266848	0.6430560128646648	-0.14914251406451576	-0.18347654461427582	0.8268036749880779	-0.09947126499010761	1.23354296626441	0.713676485970894	-0.11577734740610252	1.4932304717719531	0.6710420811675184	-0.11272907778006974	1.3468561966064974	0.608028601021709	0.044516999831544	1.1675459920040259	0.7234716891892103	0.04919649324145703	0.9654103648441982	0.5888204668826813	-0.05803160222523435	1.1594366612617817	0.5545477896148666	-0.11296261878083275	1.2308204631443045	0.6205758706252564	-0.11797724920686459	1.2429186968763752	0.5777201340042717	-0.10154219968174127	1.2222599033843315	0.5036142275626262	-0.25536451447173153	1.1563692938720826	0.7544795251305616	-0.2904901936719984	0.8917817366134438	0.7333070376578046	-0.25848924437632226	0.6611798763109724	0.658588709882077	-0.22773218035798137	0.5665386624407727	0.6434430947979873	-0.23773159355954626	0.5283454718969096	0.6367078439479525	-0.276772875021424	0.5437971246077314	0.6492864554439496	
